HIERARCHY
ROOT hip
{
  OFFSET 0 0 0
  CHANNELS 6 Xposition Yposition Zposition Zrotation Yrotation Xrotation
  JOINT abdomen
  {
    OFFSET 0 20.6881 -0.73152
    CHANNELS 3 Zrotation Xrotation Yrotation
    JOINT chest
    {
      OFFSET 0 11.7043 -0.48768
      CHANNELS 3 Zrotation Xrotation Yrotation
      JOINT neck
      {
        OFFSET 0 22.1894 -2.19456
        CHANNELS 3 Zrotation Xrotation Yrotation
        JOINT head
        {
          OFFSET -0.24384 7.07133 1.2192
          CHANNELS 3 Zrotation Xrotation Yrotation
          JOINT leftEye
          {
            OFFSET 4.14528 8.04674 8.04672
            CHANNELS 3 Zrotation Xrotation Yrotation
            End Site
            {
              OFFSET 1 0 0
            }
          }
          JOINT rightEye
          {
            OFFSET -3.6576 8.04674 8.04672
            CHANNELS 3 Zrotation Xrotation Yrotation
            End Site
            {
              OFFSET 1 0 0
            }
          }
        }
      }
      JOINT rCollar
      {
        OFFSET -2.68224 19.2634 -4.8768
        CHANNELS 3 Zrotation Xrotation Yrotation
        JOINT rShldr
        {
          OFFSET -8.77824 -1.95073 1.46304
          CHANNELS 3 Zrotation Xrotation Yrotation
          JOINT rForeArm
          {
            OFFSET -28.1742 -1.7115 0.48768
            CHANNELS 3 Zrotation Xrotation Yrotation
            JOINT rHand
            {
              OFFSET -22.5879 0.773209 7.07136
              CHANNELS 3 Zrotation Xrotation Yrotation
              JOINT rThumb1
              {
                OFFSET -1.2192 -0.487915 3.41376
                CHANNELS 3 Zrotation Xrotation Yrotation
                JOINT rThumb2
                {
                  OFFSET -3.37035 -0.52449 3.41376
                  CHANNELS 3 Zrotation Xrotation Yrotation
                  End Site
                  {
                    OFFSET -1.78271 -1.18214 1.43049
                  }
                }
              }
              JOINT rIndex1
              {
                OFFSET -7.75947 0.938293 5.60832
                CHANNELS 3 Zrotation Xrotation Yrotation
                JOINT rIndex2
                {
                  OFFSET -2.54057 -0.884171 1.56538
                  CHANNELS 3 Zrotation Xrotation Yrotation
                  End Site
                  {
                    OFFSET -1.62519 -0.234802 1.16502
                  }
                }
              }
              JOINT rMid1
              {
                OFFSET -8.24714 1.18213 3.41376
                CHANNELS 3 Zrotation Xrotation Yrotation
                JOINT rMid2
                {
                  OFFSET -3.10165 -0.590103 1.0647
                  CHANNELS 3 Zrotation Xrotation Yrotation
                  End Site
                  {
                    OFFSET -2.48547 -0.328903 0.83742
                  }
                }
              }
              JOINT rRing1
              {
                OFFSET -8.82822 0.546677 1.51678
                CHANNELS 3 Zrotation Xrotation Yrotation
                JOINT rRing2
                {
                  OFFSET -2.60934 -0.819778 -0.0198488
                  CHANNELS 3 Zrotation Xrotation Yrotation
                  End Site
                  {
                    OFFSET -2.33842 -0.294052 0.168128
                  }
                }
              }
              JOINT rPinky1
              {
                OFFSET -8.27202 -0.0477905 -0.4584
                CHANNELS 3 Zrotation Xrotation Yrotation
                JOINT rPinky2
                {
                  OFFSET -1.82734 -0.647385 -0.700984
                  CHANNELS 3 Zrotation Xrotation Yrotation
                  End Site
                  {
                    OFFSET -1.69225 -0.51767 -0.607171
                  }
                }
              }
            }
          }
        }
      }
      JOINT lCollar
      {
        OFFSET 2.68224 19.2634 -4.8768
        CHANNELS 3 Zrotation Xrotation Yrotation
        JOINT lShldr
        {
          OFFSET 8.77824 -1.95073 1.46304
          CHANNELS 3 Zrotation Xrotation Yrotation
          JOINT lForeArm
          {
            OFFSET 28.1742 -1.7115 0.48768
            CHANNELS 3 Zrotation Xrotation Yrotation
            JOINT lHand
            {
              OFFSET 22.5879 0.773209 7.07136
              CHANNELS 3 Zrotation Xrotation Yrotation
              JOINT lThumb1
              {
                OFFSET 1.2192 -0.487915 3.41376
                CHANNELS 3 Zrotation Xrotation Yrotation
                JOINT lThumb2
                {
                  OFFSET 3.37035 -0.52449 3.41376
                  CHANNELS 3 Zrotation Xrotation Yrotation
                  End Site
                  {
                    OFFSET 1.78271 -1.18214 1.43049
                  }
                }
              }
              JOINT lIndex1
              {
                OFFSET 7.75947 0.938293 5.60832
                CHANNELS 3 Zrotation Xrotation Yrotation
                JOINT lIndex2
                {
                  OFFSET 2.54057 -0.884171 1.56538
                  CHANNELS 3 Zrotation Xrotation Yrotation
                  End Site
                  {
                    OFFSET 1.62519 -0.234802 1.16502
                  }
                }
              }
              JOINT lMid1
              {
                OFFSET 8.24714 1.18213 3.41376
                CHANNELS 3 Zrotation Xrotation Yrotation
                JOINT lMid2
                {
                  OFFSET 3.10165 -0.590103 1.0647
                  CHANNELS 3 Zrotation Xrotation Yrotation
                  End Site
                  {
                    OFFSET 2.48547 -0.328903 0.83742
                  }
                }
              }
              JOINT lRing1
              {
                OFFSET 8.82822 0.546677 1.51678
                CHANNELS 3 Zrotation Xrotation Yrotation
                JOINT lRing2
                {
                  OFFSET 2.60934 -0.819778 -0.0198488
                  CHANNELS 3 Zrotation Xrotation Yrotation
                  End Site
                  {
                    OFFSET 2.33842 -0.294052 0.168128
                  }
                }
              }
              JOINT lPinky1
              {
                OFFSET 8.27202 -0.0477905 -0.4584
                CHANNELS 3 Zrotation Xrotation Yrotation
                JOINT lPinky2
                {
                  OFFSET 1.82734 -0.647385 -0.700984
                  CHANNELS 3 Zrotation Xrotation Yrotation
                  End Site
                  {
                    OFFSET 1.69225 -0.51767 -0.607171
                  }
                }
              }
            }
          }
        }
      }
    }
  }
  JOINT rButtock
  {
    OFFSET -8.77824 4.35084 1.2192
    CHANNELS 3 Zrotation Xrotation Yrotation
    JOINT rThigh
    {
      OFFSET 0 -1.70687 -2.19456
      CHANNELS 3 Zrotation Xrotation Yrotation
      JOINT rShin
      {
        OFFSET 0 -36.8199 0.73152
        CHANNELS 3 Zrotation Xrotation Yrotation
        JOINT rFoot
        {
          OFFSET 0.73152 -45.1104 -5.12064
          CHANNELS 3 Zrotation Xrotation Yrotation
          End Site
          {
            OFFSET -1.1221 -3.69964 12.103
          }
        }
      }
    }
  }
  JOINT lButtock
  {
    OFFSET 8.77824 4.35084 1.2192
    CHANNELS 3 Zrotation Xrotation Yrotation
    JOINT lThigh
    {
      OFFSET 0 -1.70687 -2.19456
      CHANNELS 3 Zrotation Xrotation Yrotation
      JOINT lShin
      {
        OFFSET 0 -36.8199 0.73152
        CHANNELS 3 Zrotation Xrotation Yrotation
        JOINT lFoot
        {
          OFFSET -0.73152 -45.1104 -5.12064
          CHANNELS 3 Zrotation Xrotation Yrotation
          End Site
          {
            OFFSET 1.1221 -3.69964 12.103
          }
        }
      }
    }
  }
}
MOTION
Frames:	6
Frame Time:	0.00833333
46.5746 38.6286 -3.55768 -306.381 94.5533 -255.31 3.94686 43.3649 0.096325 0.164541 -16.0675 0.800666 0.821892 12.331 -1.12598 -16.383 -62.5144 -10.6238 -0.0 0.0 0.0 -0.0 0.0 0.0 9.60344e-15 4.99353e-12 -6.44062e-14 5.68454 18.9356 55.9589 -22.6629 -16.7861 45.621 -1.02989 27.534 4.20165 -1.57573e-09 1.3149e-09 -1.98917e-09 -2.76535e-09 2.29322e-09 -3.39904e-09 -1.57572e-09 1.3149e-09 -1.98918e-09 7.73091 5.47488 0.417314 -1.57573e-09 1.3149e-09 -1.98916e-09 2.90554 0.965183 0.102902 -1.57572e-09 1.3149e-09 -1.98917e-09 10.2786 0.731801 0.0259123 -1.57573e-09 1.3149e-09 -1.98916e-09 2.22167 -0.733487 -0.20892 9.48052e-15 4.99353e-12 -6.45553e-14 -16.6662 8.70372 -65.5588 15.502 -8.2326 -28.6282 0.445602 18.6317 -2.71592 2.44497e-09 -3.5569e-10 1.95036e-09 4.25594e-09 -6.07022e-10 3.33073e-09 2.44497e-09 -3.55688e-10 1.95037e-09 -7.73091 5.47488 -0.417314 2.44497e-09 -3.55692e-10 1.95037e-09 -2.90554 0.965183 -0.102902 2.44496e-09 -3.55691e-10 1.95037e-09 -10.2786 0.731801 -0.0259123 2.44497e-09 -3.55691e-10 1.95037e-09 -2.22167 -0.733487 0.20892 -2.03217e-16 0.0 -3.88251e-19 2.72199 -65.901 0.668547 -176.669 67.0222 178.708 -13.8925 50.0277 25.2709 2.03217e-16 0.0 3.88251e-19 40.718 -47.3607 32.9022 176.6 70.091 -179.328 16.1202 41.8732 -32.8705
46.8568 38.6767 -3.4954 -306.52 94.5309 -255.22 3.63898 43.1146 0.454002 0.132245 -16.0281 0.850414 0.985586 12.3902 -1.1504 -16.6582 -62.472 -10.8557 -0.0 0.0 0.0 -0.0 0.0 0.0 1.28733e-14 3.70468e-12 -5.3475e-14 6.51704 17.5297 55.6898 -22.6194 -16.7162 45.4989 -0.964206 26.7322 4.05874 -9.40552e-10 8.38362e-10 -1.12371e-09 -1.64958e-09 1.45956e-09 -1.91803e-09 -9.40547e-10 8.3836e-10 -1.12372e-09 7.73091 5.47488 0.417314 -9.40552e-10 8.38358e-10 -1.12371e-09 2.90554 0.965183 0.102902 -9.40544e-10 8.38358e-10 -1.12371e-09 10.2786 0.731801 0.0259123 -9.40556e-10 8.38358e-10 -1.1237e-09 2.22167 -0.733487 -0.20892 1.27665e-14 3.70434e-12 -5.36722e-14 -16.709 9.00718 -65.7081 15.5222 -8.2507 -28.6704 0.451951 18.7585 -2.73579 1.21993e-09 -4.15496e-10 1.24373e-09 2.12742e-09 -7.1463e-10 2.13022e-09 1.21993e-09 -4.15494e-10 1.24374e-09 -7.73091 5.47488 -0.417314 1.21993e-09 -4.15498e-10 1.24374e-09 -2.90554 0.965183 -0.102902 1.21992e-09 -4.15496e-10 1.24374e-09 -10.2786 0.731801 -0.0259123 1.21993e-09 -4.15496e-10 1.24374e-09 -2.22167 -0.733487 0.20892 -2.03217e-16 0.0 -3.88251e-19 3.17701 -65.6093 1.12205 -176.652 67.3297 178.72 -14.2782 50.6439 25.4561 2.03217e-16 0.0 3.88251e-19 42.4484 -48.2048 34.429 176.723 69.2126 -179.536 16.7542 42.5025 -33.7215
47.1381 38.7209 -3.43792 -306.093 94.4752 -254.576 3.20539 42.8414 0.872136 0.145269 -15.9879 0.908838 1.13841 12.4513 -1.16903 -16.8841 -62.4284 -11.043 -0.0 0.0 0.0 -0.0 0.0 0.0 2.19636e-15 1.43495e-12 -2.91499e-14 7.29907 16.0837 55.5441 -22.5462 -16.599 45.2968 -0.898096 25.8884 3.91056 1.63864e-10 2.31469e-11 1.80509e-10 2.8512e-10 3.74505e-11 3.10513e-10 1.63868e-10 2.31457e-11 1.80496e-10 7.73091 5.47488 0.417314 1.63863e-10 2.3145e-11 1.80508e-10 2.90554 0.965183 0.102902 1.6387e-10 2.31451e-11 1.80506e-10 10.2786 0.731801 0.0259123 1.6386e-10 2.3147e-11 1.8051e-10 2.22167 -0.733487 -0.20892 2.07936e-15 1.43465e-12 -2.94294e-14 -16.7767 9.31395 -65.8462 15.5366 -8.26363 -28.7004 0.459458 18.9064 -2.75902 -4.72587e-10 -2.94769e-10 2.17281e-10 -8.14085e-10 -5.11521e-10 3.85072e-10 -4.72591e-10 -2.94768e-10 2.17291e-10 -7.73091 5.47488 -0.417314 -4.72585e-10 -2.94771e-10 2.17283e-10 -2.90554 0.965183 -0.102902 -4.72596e-10 -2.94769e-10 2.17284e-10 -10.2786 0.731801 -0.0259123 -4.72588e-10 -2.94768e-10 2.17278e-10 -2.22167 -0.733487 0.20892 -2.03217e-16 0.0 -3.88251e-19 3.61323 -65.3767 1.60879 -176.633 67.5697 178.716 -14.4682 51.0247 25.4778 2.03217e-16 0.0 3.88251e-19 44.2191 -49.0375 36.0463 176.836 68.3454 -179.738 17.3696 43.0327 -34.6158
47.4187 38.7607 -3.38586 -305.163 94.3886 -253.443 2.70601 42.5773 1.32751 0.172882 -15.9517 0.972759 1.28924 12.5195 -1.18908 -17.0985 -62.394 -11.2276 -0.0 0.0 0.0 -0.0 0.0 0.0 -1.36216e-14 -9.26923e-13 -3.07145e-15 8.05635 14.6195 55.4914 -22.4461 -16.4408 45.0184 -0.838148 25.0795 3.77081 1.20287e-09 -7.73009e-10 1.34271e-09 2.1039e-09 -1.34986e-09 2.29506e-09 1.20288e-09 -7.73009e-10 1.34269e-09 7.73091 5.47488 0.417314 1.20287e-09 -7.73009e-10 1.3427e-09 2.90554 0.965183 0.102902 1.20288e-09 -7.73008e-10 1.3427e-09 10.2786 0.731801 0.0259123 1.20287e-09 -7.73005e-10 1.34271e-09 2.22167 -0.733487 -0.20892 -1.3755e-14 -9.27035e-13 -3.4302e-15 -16.8565 9.62446 -65.9851 15.5491 -8.27481 -28.7262 0.467738 19.0678 -2.78442 -1.92527e-09 -1.10991e-10 -7.08297e-10 -3.3395e-09 -1.98581e-10 -1.18997e-09 -1.92528e-09 -1.10991e-10 -7.08288e-10 -7.73091 5.47488 -0.417314 -1.92527e-09 -1.10993e-10 -7.08297e-10 -2.90554 0.965183 -0.102902 -1.92528e-09 -1.10991e-10 -7.08298e-10 -10.2786 0.731801 -0.0259123 -1.92527e-09 -1.10988e-10 -7.08306e-10 -2.22167 -0.733487 0.20892 -2.03217e-16 0.0 -3.88251e-19 4.01417 -65.1594 2.08953 -176.616 67.7628 178.706 -14.5533 51.2707 25.4203 2.03217e-16 0.0 3.88251e-19 46.0022 -49.8448 37.699 176.939 67.5008 -179.932 17.9818 43.5176 -35.5262
47.7023 38.7959 -3.33878 -303.824 94.2835 -251.929 2.19883 42.3548 1.79822 0.184381 -15.924 1.039 1.44698 12.6002 -1.21773 -17.3393 -62.3794 -11.4512 -0.0 0.0 0.0 -0.0 0.0 0.0 -2.57749e-14 -2.49221e-12 1.31198e-14 8.81196 13.1556 55.5001 -22.3215 -16.2477 44.6673 -0.789307 24.3824 3.65222 1.64183e-09 -1.19237e-09 1.78212e-09 2.87193e-09 -2.07911e-09 3.0441e-09 1.64183e-09 -1.19237e-09 1.7821e-09 7.73091 5.47488 0.417314 1.64183e-09 -1.19237e-09 1.78211e-09 2.90554 0.965183 0.102902 1.64184e-09 -1.19237e-09 1.78211e-09 10.2786 0.731801 0.0259123 1.64183e-09 -1.19237e-09 1.78211e-09 2.22167 -0.733487 -0.20892 -2.59108e-14 -2.49221e-12 1.27222e-14 -16.9351 9.93855 -66.137 15.5633 -8.28763 -28.7559 0.47638 19.2349 -2.81077 -2.43082e-09 1.83562e-11 -1.1123e-09 -4.21972e-09 2.33039e-11 -1.88015e-09 -2.43082e-09 1.83558e-11 -1.11229e-09 -7.73091 5.47488 -0.417314 -2.43082e-09 1.83545e-11 -1.1123e-09 -2.90554 0.965183 -0.102902 -2.43083e-09 1.83564e-11 -1.11231e-09 -10.2786 0.731801 -0.0259123 -2.43082e-09 1.83594e-11 -1.11232e-09 -2.22167 -0.733487 0.20892 -2.03217e-16 0.0 -3.88251e-19 4.36144 -64.9144 2.52336 -176.601 67.9296 178.7 -14.6288 51.4823 25.3734 2.03217e-16 0.0 3.88251e-19 47.762 -50.6177 39.3263 177.032 66.6903 179.883 18.6091 44.0116 -36.4289
47.9913 38.8265 -3.29761 -302.143 94.1634 -250.108 1.65844 42.1806 2.29619 0.184846 -15.9081 1.10895 1.61104 12.6998 -1.25566 -17.6084 -62.3922 -11.7178 -0.0 0.0 0.0 -0.0 0.0 0.0 -3.57519e-14 -2.97648e-12 1.66964e-14 9.58107 11.6824 55.5745 -22.166 -16.0097 44.2355 -0.752281 23.8356 3.56013 1.05633e-09 -1.02832e-09 9.58973e-10 1.84582e-09 -1.78829e-09 1.63424e-09 1.05633e-09 -1.02832e-09 9.58947e-10 7.73091 5.47488 0.417314 1.05633e-09 -1.02832e-09 9.58964e-10 2.90554 0.965183 0.102902 1.05634e-09 -1.02831e-09 9.58961e-10 10.2786 0.731801 0.0259123 1.05633e-09 -1.02831e-09 9.58965e-10 2.22167 -0.733487 -0.20892 -3.58688e-14 -2.97649e-12 1.63217e-14 -17.0161 10.2544 -66.3014 15.5799 -8.3026 -28.7906 0.485375 19.4072 -2.83799 -1.27474e-09 8.55633e-11 -6.26212e-10 -2.21408e-09 1.43089e-10 -1.06134e-09 -1.27474e-09 8.55629e-11 -6.26202e-10 -7.73091 5.47488 -0.417314 -1.27474e-09 8.55618e-11 -6.26213e-10 -2.90554 0.965183 -0.102902 -1.27474e-09 8.55635e-11 -6.26215e-10 -10.2786 0.731801 -0.0259123 -1.27474e-09 8.55663e-11 -6.26227e-10 -2.22167 -0.733487 0.20892 -2.03217e-16 0.0 -3.88251e-19 4.64848 -64.6436 2.91868 -176.592 68.0618 178.699 -14.6852 51.6545 25.3257 2.03217e-16 0.0 3.88251e-19 49.4748 -51.3531 40.9218 177.117 65.9162 179.701 19.2696 44.5365 -37.3354
